<?xml version="1.0" encoding="UTF-8"?>
<svg id="Calque_1" data-name="Calque 1" xmlns="http://www.w3.org/2000/svg" viewBox="0 0 48 48">
  <defs>
    <style>
      .cls-1 {
        fill: #ee7768;
      }
    </style>
  </defs>
  <path class="cls-1" d="M45.03,26.04c0-2.7-1.37-5.06-3.37-6.9-4.26-3.91-8.62-7.6-13.14-11.21-1.21-.97-2.87-1.43-4.52-1.42h0c-1.65,0-3.31.45-4.52,1.42-4.52,3.61-8.87,7.3-13.14,11.21-2,1.84-3.36,4.2-3.37,6.9l-.03,10.3c0,2.67,1.65,4.63,4.18,5.07,1.76.31,3.32-.23,4.55-1.44l2.69-2.63c2.66,2.34,6.15,3.47,9.63,3.43h0c3.48.04,6.97-1.09,9.63-3.43l2.69,2.63c1.23,1.2,2.79,1.74,4.55,1.44,2.53-.44,4.19-2.4,4.18-5.07l-.03-10.3ZM13.07,24.36c1.6-2.12,4.55-2.32,6.66-.81l2.02,1.93-7.31,7.32c-2.66-1.99-3.39-5.77-1.37-8.44ZM24,37.57c-2.63.05-5.22-.8-7.37-2.49l7.37-7.36h0s0,0,0,0l7.37,7.36c-2.15,1.69-4.74,2.54-7.37,2.49ZM33.56,32.8l-7.31-7.32,2.02-1.93c2.11-1.5,5.06-1.3,6.66.81,2.03,2.67,1.29,6.46-1.37,8.44ZM41.82,35.87c-.08.39-.22,1-.35,1.3-.3.69-1.01,1.12-1.76,1.04-.5-.05-.99-.28-1.38-.66l-2.46-2.4c4.17-3.73,4.73-10.15.56-13.83-3.03-2.67-7.49-2.63-10.58-.04l-1.86,1.8h0s0,0,0,0h0s-1.86-1.8-1.86-1.8c-3.09-2.6-7.55-2.64-10.58.04-4.17,3.68-3.61,10.1.56,13.83l-2.46,2.4c-.39.38-.88.61-1.38.66-.75.08-1.46-.35-1.76-1.04-.12-.29-.26-.9-.35-1.3-.05-.23-.07-.46-.07-.7l.06-9.11c.55-2.09,1.41-3.7,2.97-5.1,4.07-3.64,8.16-7.13,12.45-10.51.71-.56,1.56-.82,2.41-.8h0c.84-.01,1.7.24,2.41.8,4.29,3.38,8.39,6.87,12.45,10.51,1.56,1.4,2.42,3.01,2.97,5.1l.06,9.11c0,.23-.02.47-.07.7Z"/>
</svg>