<?xml version="1.0" encoding="UTF-8"?>
<svg id="Calque_1" data-name="Calque 1" xmlns="http://www.w3.org/2000/svg" viewBox="0 0 48 48">
  <defs>
    <style>
      .cls-1 {
        fill: #ee7768;
      }
    </style>
  </defs>
  <path class="cls-1" d="M24.16,4.79l.08.02h.38c.86.08,1.69.26,2.49.59.58.24,1.16.54,1.64.95l12.84,10.71,1.47,1.44c.72.71,1.32,1.51,1.81,2.4.57,1.05.95,2.19,1.08,3.38l.02.15v8.27s-.02,4.01-.02,4.01c0,.11,0,.18-.05.27-.49.88-1.07,1.7-1.75,2.45-.58.63-1.4,1.36-2.23,1.57-.48.12-.95.15-1.44.14-.86-.01-1.69-.24-2.45-.62-.53-.28-1.01-.61-1.45-1.03l-2.82-2.7c-2.07,1.78-4.58,2.91-7.26,3.39-4.4.77-9.05-.29-12.48-3.2-.01-.01-.05-.02-.06,0l-.02.03-2.03,1.99-.64.63c-.42.41-.9.74-1.42,1.01-.77.39-1.6.56-2.46.54-1.74-.04-3.39-.8-4.39-2.25l-.36-.6v-.03s-.03-.03-.03-.03c-.17-.35-.29-.7-.39-1.07v-.03s-.12-.6-.12-.6v-.04s0-.03,0-.03v-.03s0-.03,0-.03v-.04s0-.04,0-.04v-.03s0-.03,0-.03v-.03s0-.04,0-.04v-.04s0-.14,0-.14c0-.03,0-.05-.02-.06v-2.17s.03-7.65.03-7.65v-1.48c.04-1.01.29-1.99.68-2.92.6-1.44,1.62-2.78,2.76-3.83,2.42-2.22,4.87-4.38,7.38-6.5,2.09-1.77,4.2-3.5,6.34-5.2.99-.79,2.56-1.31,3.81-1.39h.16s.34-.03.34-.03h.61ZM36.38,19.63c1.65,1.18,2.8,2.89,3.28,4.85.18.73.26,1.46.27,2.22.01,1.49-.25,2.99-.91,4.33-.31.63-.68,1.21-1.16,1.72l-1.41,1.51-.03.03s0,.03.01.04l.03.02.11.11,1.5,1.49.02.02.54.52.5.39c.37.24.78.43,1.23.5.83.14,1.95-.4,1.95-1.27v-1.72s0-3.08,0-3.08v-3.08s-.01-2.81-.01-2.81c0-1.01-.4-2.15-.95-3-.34-.54-.7-1.08-1.17-1.52l-3.64-3.38-5.72-4.74-4.64-3.64c-.7-.55-1.59-.8-2.47-.79-.83.02-1.6.31-2.24.82-2.25,1.78-4.45,3.58-6.64,5.44s-4.21,3.61-6.27,5.47c-.9.81-1.6,1.8-2.12,2.9-.32.68-.56,1.4-.76,2.13l-.07,11.02.71.95c.42.29.91.4,1.42.34.45-.07.87-.25,1.2-.57l2.47-2.41c-1.83-1.7-3.05-3.95-3.37-6.42-.37-2.9.56-5.72,2.68-7.73,1.89-1.79,4.49-2.61,7.07-2.21,1.58.26,3.1.92,4.31,1.99l1.87,1.8,1.84-1.78c.76-.7,1.67-1.22,2.63-1.6,1.51-.56,3.13-.67,4.7-.31,1.16.26,2.26.76,3.23,1.45ZM35.32,30.1c.93-1.42,1.14-3.23.69-4.84s-1.66-2.96-3.36-3.42c-1.23-.33-2.53-.2-3.63.44-.48.26-.89.6-1.28.99l-1.24,1.25,7.4,7.28,1.43-1.69ZM16.93,28.92l4.42-4.42-1.94-1.86c-.85-.61-1.87-.96-2.93-.98-1.34-.02-2.63.52-3.51,1.53-.81.94-1.28,2.12-1.35,3.36-.11,2.04.82,4.01,2.42,5.26l2.89-2.9ZM27.04,36.29l1.42-.5c1.01-.4,1.94-.94,2.78-1.61l-7.28-7.21-1.84,1.83-3,3-2.56,2.56c3.02,2.3,6.83,3,10.48,1.93Z"/>
</svg>