<?xml version="1.0" encoding="UTF-8"?>
<svg id="Calque_1" data-name="Calque 1" xmlns="http://www.w3.org/2000/svg" viewBox="0 0 1649.78 317.38">
  <defs>
    <style>
      .cls-1, .cls-2, .cls-3, .cls-4, .cls-5, .cls-6 {
        fill: #ee7768;
      }

      .cls-1, .cls-3, .cls-4, .cls-5, .cls-6 {
        font-size: 173.74px;
      }

      .cls-7 {
        letter-spacing: -.08em;
      }

      .cls-7, .cls-8 {
        font-size: 104.29px;
        opacity: .28;
      }

      .cls-3 {
        letter-spacing: 0em;
      }

      .cls-9 {
        font-family: Inter-Bold, Inter;
        font-variation-settings: 'opsz' 14, 'wght' 700;
        font-weight: 700;
      }

      .cls-4 {
        letter-spacing: .01em;
      }

      .cls-8 {
        letter-spacing: 0em;
      }

      .cls-5 {
        letter-spacing: -.01em;
      }

      .cls-6 {
        letter-spacing: -.09em;
      }
    </style>
  </defs>
  <text class="cls-9" transform="translate(317.65 248.02)"><tspan class="cls-1" x="0" y="0">Find</tspan><tspan class="cls-4" x="366.74" y="0">M</tspan><tspan class="cls-3" x="530.39" y="0">y</tspan><tspan class="cls-5" x="635.41" y="0">R</tspan><tspan class="cls-1" x="747.39" y="0">oo</tspan><tspan class="cls-6" x="960.5" y="0">m</tspan><tspan class="cls-7" x="1104.29" y="0">.</tspan><tspan class="cls-8" x="1130.25" y="0">be</tspan></text>
  <path class="cls-2" d="M287.51,161.98c-.04-15.02-7.61-28.14-18.73-38.34-23.69-21.73-47.87-42.24-73-62.31-6.74-5.38-15.93-7.94-25.11-7.89h0c-9.17-.05-18.37,2.52-25.11,7.89-25.13,20.07-49.31,40.58-73,62.31-11.12,10.2-18.69,23.31-18.73,38.34l-.15,57.24c-.04,14.82,9.17,25.71,23.22,28.17,9.79,1.71,18.43-1.3,25.27-7.98l14.97-14.64c14.81,13,34.16,19.29,53.52,19.05h0c19.35.25,38.71-6.05,53.52-19.05l14.97,14.64c6.83,6.68,15.48,9.69,25.27,7.98,14.05-2.46,23.26-13.35,23.22-28.17l-.15-57.24ZM109.95,152.64c8.91-11.76,25.28-12.87,37.02-4.52l11.23,10.75-40.64,40.69c-14.8-11.05-18.86-32.07-7.61-46.91ZM170.67,226.04c-14.6.27-28.99-4.47-40.94-13.85l40.94-40.88h0s0,0,0,0l40.94,40.88c-11.96,9.38-26.34,14.12-40.94,13.85ZM223.8,199.55l-40.64-40.69,11.23-10.75c11.73-8.35,28.1-7.24,37.02,4.52,11.26,14.85,7.19,35.87-7.61,46.91ZM269.7,216.59c-.46,2.18-1.23,5.58-1.92,7.2-1.64,3.84-5.62,6.21-9.77,5.76-2.8-.3-5.52-1.58-7.68-3.68l-13.68-13.34c23.17-20.73,26.26-56.39,3.11-76.82-16.81-14.84-41.61-14.64-58.78-.2l-10.31,10.02h0s0,0,0,0h0s-10.31-10.02-10.31-10.02c-17.17-14.44-41.97-14.64-58.78.2-23.15,20.43-20.06,56.1,3.11,76.82l-13.68,13.34c-2.16,2.1-4.87,3.38-7.68,3.68-4.15.45-8.13-1.92-9.77-5.76-.69-1.62-1.47-5.02-1.92-7.2-.27-1.27-.4-2.57-.39-3.87l.33-50.61c3.06-11.6,7.85-20.57,16.53-28.33,22.59-20.21,45.36-39.61,69.18-58.37,3.94-3.11,8.68-4.53,13.38-4.46h0c4.69-.08,9.43,1.35,13.38,4.46,23.82,18.76,46.6,38.16,69.18,58.37,8.67,7.76,13.47,16.74,16.53,28.33l.33,50.61c0,1.3-.12,2.6-.39,3.87Z"/>
</svg>