<?xml version="1.0" encoding="UTF-8"?>
<svg id="Calque_1" data-name="Calque 1" xmlns="http://www.w3.org/2000/svg" viewBox="0 0 1000 1000">
  <defs>
    <style>
      .cls-1, .cls-2, .cls-3, .cls-4, .cls-5, .cls-6 {
        fill: #ee7768;
      }

      .cls-2 {
        letter-spacing: .01em;
      }

      .cls-2, .cls-3, .cls-4, .cls-5, .cls-6 {
        font-size: 108.4px;
      }

      .cls-7 {
        letter-spacing: -.08em;
      }

      .cls-7, .cls-8 {
        font-size: 65.07px;
        opacity: .28;
      }

      .cls-9 {
        font-family: Inter-Bold, Inter;
        font-variation-settings: 'opsz' 14, 'wght' 700;
        font-weight: 700;
      }

      .cls-3 {
        letter-spacing: -.09em;
      }

      .cls-4 {
        letter-spacing: -.01em;
      }

      .cls-6 {
        letter-spacing: 0em;
      }
    </style>
  </defs>
  <text class="cls-9" transform="translate(111.6 787.31)"><tspan class="cls-5" x="0" y="0">Find</tspan><tspan class="cls-2" x="228.81" y="0">M</tspan><tspan class="cls-6" x="330.92" y="0">y</tspan><tspan class="cls-4" x="396.44" y="0">R</tspan><tspan class="cls-5" x="466.31" y="0">oo</tspan><tspan class="cls-3" x="599.27" y="0">m</tspan><tspan class="cls-7" x="688.98" y="0">.</tspan><tspan class="cls-8" x="705.18" y="0">be</tspan></text>
  <path class="cls-1" d="M762.98,428.92c-.09-33.55-17-62.85-41.84-85.64-52.91-48.53-106.93-94.36-163.06-139.19-15.05-12.02-35.59-17.74-56.08-17.64h0c-20.49-.1-41.03,5.62-56.08,17.64-56.13,44.82-110.15,90.65-163.06,139.19-24.84,22.78-41.75,52.08-41.84,85.64l-.33,127.86c-.09,33.1,20.49,57.43,51.88,62.93,21.86,3.83,41.18-2.9,56.44-17.82l33.45-32.69c33.08,29.04,76.31,43.1,119.54,42.54h0c43.23.55,86.47-13.5,119.54-42.54l33.45,32.69c15.26,14.92,34.58,21.65,56.44,17.82,31.39-5.49,51.96-29.82,51.88-62.93l-.33-127.86ZM366.35,408.06c19.91-26.26,56.48-28.75,82.69-10.1l25.09,24.01-90.79,90.89c-33.05-24.68-42.14-71.63-16.99-104.8ZM502,572.03c-32.62.6-64.75-9.99-91.46-30.94l91.46-91.31h0s0,0,0,0l91.46,91.31c-26.71,20.95-58.84,31.54-91.46,30.94ZM620.66,512.86l-90.79-90.89,25.09-24.01c26.21-18.65,62.77-16.16,82.69,10.1,25.15,33.16,16.06,80.12-16.99,104.8ZM723.22,550.91c-1.02,4.87-2.75,12.47-4.3,16.09-3.67,8.58-12.55,13.87-21.83,12.87-6.26-.68-12.33-3.53-17.15-8.23l-30.55-29.79c51.76-46.3,58.66-125.96,6.95-171.61-37.55-33.15-92.96-32.7-131.31-.44l-23.03,22.38h0s0,0,0,0h0s-23.03-22.38-23.03-22.38c-38.35-32.26-93.75-32.71-131.31.44-51.71,45.64-44.81,125.31,6.95,171.61l-30.55,29.79c-4.82,4.7-10.89,7.55-17.15,8.23-9.28,1-18.16-4.28-21.83-12.87-1.55-3.62-3.28-11.22-4.3-16.09-.6-2.85-.89-5.74-.87-8.65l.74-113.06c6.83-25.9,17.54-45.95,36.92-63.29,50.46-45.15,101.32-88.48,154.54-130.39,8.81-6.94,19.4-10.13,29.88-9.96h0c10.49-.17,21.07,3.02,29.88,9.96,53.22,41.92,104.09,85.24,154.54,130.39,19.38,17.34,30.08,37.39,36.92,63.29l.74,113.06c.02,2.91-.27,5.81-.87,8.65Z"/>
</svg>