<?xml version="1.0" encoding="UTF-8"?>
<svg id="Calque_1" data-name="Calque 1" xmlns="http://www.w3.org/2000/svg" viewBox="0 0 1000 1000">
  <defs>
    <style>
      .cls-1 {
        letter-spacing: -.01em;
      }

      .cls-1, .cls-2, .cls-3, .cls-4, .cls-5 {
        font-size: 108.4px;
      }

      .cls-2 {
        letter-spacing: -.09em;
      }

      .cls-3 {
        letter-spacing: 0em;
      }

      .cls-6 {
        letter-spacing: -.08em;
      }

      .cls-6, .cls-7 {
        font-size: 65.07px;
        opacity: .28;
      }

      .cls-8 {
        fill: #fff;
      }

      .cls-9 {
        font-family: Inter-Bold, Inter;
        font-variation-settings: 'opsz' 14, 'wght' 700;
        font-weight: 700;
      }

      .cls-5 {
        letter-spacing: .01em;
      }
    </style>
  </defs>
  <g>
    <path d="M303.45,623.7c-3.97,0-8.05-.36-12.14-1.08-32.39-5.67-53.26-30.97-53.17-64.48l.33-129c.08-31.55,14.79-61.68,42.54-87.13,51.36-47.11,105.19-93.06,164.57-140.47,14.55-11.62,34.67-18.01,56.67-18.01,23.11,0,44.94,7.15,59.88,19.61l154.89,129.24,16.2,15.8c21.63,21.09,34.35,46.81,36.8,74.39l-.28,149.15c0,1.86-25.42,46.04-50.56,50.52-4.39.78-8.79,1.18-13.09,1.18-18.32,0-35.43-7.13-49.49-20.63l-34.04-32.68c-33.01,28.71-76.38,44.51-122.25,44.51h-.01c-44.55,0-86.44-15.11-118.09-42.58l-33.09,32.34c-12.94,12.64-28.73,19.33-45.67,19.33ZM288.53,576.04c4.31,2.98,9.32,4.56,14.51,4.56,7.18,0,14.11-2.9,19.51-8.18l30.06-29.31c-27.05-24.59-42.48-58.62-42.36-93.56.1-31.33,12.94-59.87,36.15-80.36,18.43-16.26,42.08-25.22,66.6-25.22s48.21,8.79,67.19,24.76l23.63,22.96,23.52-22.93c18.91-16.28,41.61-24.87,65.7-24.87,14.36,0,28.51,3.08,42.08,9.16,35.98,16.11,58.92,49.23,61.36,88.58,2.01,32.53-7,61.29-25.37,81l-17.51,18.78,24.37,24.24c7.89,7.85,15.06,12.06,23.97,14.08,1.29.29,2.71.44,4.2.44,6.38,0,13.17-2.67,17.3-6.81,2.85-2.86,4.35-6.31,4.35-9.99l-.21-129.12c-.02-12.96-4.5-33.26-25.74-56.36l-44.59-41.19-69.45-57.83-55.89-43.69c-8.44-6.6-19.06-10.23-29.9-10.23s-20.56,3.4-28.74,9.84c-50,39.38-100.98,82.4-155.88,131.52-18.29,16.36-29.67,35.87-36.92,63.24l-.88,134.44,8.95,12.05ZM412.01,542.22c25.7,19.85,56.13,30.33,88.1,30.33h0c16.69,0,33.25-2.91,49.22-8.65,17.31-5.86,30.99-13.26,44.22-23.92l-90.02-89.14-91.53,91.38ZM411.63,386.68c-17.93,0-34.31,8.03-44.92,22.03-11.47,15.13-16.3,33.99-13.61,53.09,2.81,19.91,13.68,38.35,29.86,50.71l90.26-90.36-24.52-23.47c-10.91-7.74-24.07-12.01-37.07-12.01ZM624.34,512.29l18.05-21.38c11.8-17.83,14.68-42.04,7.51-63.19-6.23-18.36-19.17-31.74-36.44-37.67-6.74-2.32-13.57-3.49-20.28-3.49-16.23,0-31.48,6.72-44.11,19.44l-16.25,16.36,91.51,89.94Z"/>
    <path class="cls-8" d="M502.24,184.53c21.99,0,43.98,6.65,59.24,19.38l154.89,129.24,16.14,15.74c20.22,19.72,33.97,45.23,36.51,73.76l-.28,149.06c0,1.14-24.71,45.08-49.74,49.54-4.38.78-8.69,1.16-12.92,1.16-18.4,0-35.15-7.25-48.79-20.35l-34.7-33.31c-33.88,29.78-78.18,44.87-122.28,44.87s-85.4-14.2-118.14-42.94l-33.75,32.99c-12.55,12.26-27.81,19.04-44.97,19.04-3.9,0-7.89-.35-11.97-1.06-31.67-5.54-52.43-30.09-52.34-63.49l.33-129c.09-33.85,17.15-63.41,42.21-86.4,53.38-48.97,107.88-95.21,164.52-140.43,15.05-12.02,35.55-17.8,56.05-17.8M303.04,581.6c7.32,0,14.61-2.99,20.21-8.46l30.82-30.06c-52.22-46.71-59.18-127.09-7.01-173.14,18.94-16.72,42.39-24.97,65.93-24.97s47.2,8.25,66.54,24.53l24.27,23.59,24.22-23.61c18.86-16.24,41.68-24.58,65-24.58,13.96,0,28.1,2.99,41.67,9.07,35.62,15.95,58.34,48.55,60.77,87.73,1.8,29.13-5.25,58.96-25.11,80.26l-18.17,19.49,25.06,24.92c6.94,6.9,14.23,12.03,24.45,14.35,1.38.31,2.87.47,4.42.47,10.17,0,22.66-6.65,22.64-17.8l-.21-129.12c-.03-21.69-12.01-41.81-26-57.03l-44.65-41.25-69.49-57.86-55.92-43.71c-8.72-6.82-19.59-10.44-30.52-10.44-10.32,0-20.69,3.23-29.36,10.06-53.69,42.29-105.02,86-155.92,131.56-19.55,17.49-30.35,37.72-37.25,63.86l-.88,134.9,9.24,12.45c4.68,3.28,9.96,4.83,15.22,4.83M624.41,513.76l18.79-22.25c22.13-33.36,12.62-87.96-29.4-102.41-6.98-2.4-13.89-3.55-20.61-3.55-16.72,0-32.28,7.11-44.82,19.74l-16.95,17.07,92.99,91.4M383.05,513.83l91.6-91.7-25.32-24.22c-11.36-8.08-24.65-12.23-37.71-12.23-17.33,0-34.26,7.31-45.72,22.42-25.37,33.46-16.21,80.84,17.14,105.73M500.11,573.56c16.58,0,33.31-2.87,49.57-8.71,17.33-5.87,31.4-13.36,45.38-24.79l-91.52-90.62-93.03,92.88c26.22,20.56,57.62,31.24,89.61,31.24M502.24,182.53v2-2c-22.23,0-42.57,6.48-57.3,18.23-59.39,47.42-113.24,93.39-164.62,140.52-27.96,25.64-42.78,56.03-42.86,87.87l-.33,129c-.09,34.01,21.11,59.71,54,65.46,4.15.73,8.29,1.09,12.32,1.09,17.21,0,33.24-6.78,46.37-19.61l32.43-31.7c31.74,27.25,73.59,42.23,118.06,42.23,22.57,0,44.66-3.83,65.65-11.38,21.08-7.59,40.1-18.61,56.56-32.78l33.38,32.05c14.25,13.68,31.6,20.91,50.18,20.91,4.36,0,8.82-.4,13.27-1.19,13.65-2.43,26.82-15.88,35.47-26.74,5.03-6.32,8.96-12.26,11.37-16.12,4.55-7.32,4.55-8.29,4.55-8.65l.28-149.06v-.09s0-.09,0-.09c-2.47-27.81-15.3-53.75-37.1-75.01l-16.14-15.74-.06-.05-.06-.05-154.89-129.24c-15.12-12.61-37.17-19.85-60.52-19.85h0ZM281.46,429.69c7.19-27.11,18.48-46.43,36.58-62.63,54.88-49.11,105.85-92.11,155.83-131.48,8-6.3,17.72-9.63,28.12-9.63s21.02,3.56,29.29,10.02l55.89,43.69,69.43,57.81,44.55,41.16c20.97,22.84,25.4,42.85,25.42,55.62l.21,129.12c0,3.46-1.36,6.58-4.06,9.29-3.95,3.96-10.46,6.51-16.59,6.51-1.42,0-2.75-.14-3.98-.42-8.71-1.97-15.73-6.1-23.48-13.81l-23.68-23.56,16.85-18.07c18.57-19.91,27.67-48.94,25.64-81.74-2.46-39.73-25.62-73.16-61.95-89.43-13.7-6.13-27.99-9.24-42.49-9.24-24.33,0-47.26,8.67-66.3,25.07l-.05.04-.04.04-22.83,22.25-22.88-22.24-.05-.05-.05-.05c-19.16-16.12-43.25-25-67.83-25s-48.65,9.05-67.26,25.47c-23.43,20.68-36.39,49.48-36.49,81.11-.12,34.88,15.13,68.86,41.91,93.58l-29.3,28.58c-5.22,5.09-11.9,7.89-18.82,7.89-4.93,0-9.7-1.48-13.81-4.29l-8.65-11.65.88-133.98h0ZM534.25,422.34l15.54-15.65c12.44-12.52,27.44-19.14,43.4-19.14,6.61,0,13.32,1.16,19.96,3.44,16.97,5.83,29.69,18.99,35.81,37.05,7.07,20.84,4.25,44.69-7.37,62.27l-17.32,20.52-90.02-88.48h0ZM382.88,511.18c-15.59-12.2-26.05-30.15-28.78-49.52-2.66-18.84,2.1-37.43,13.41-52.35,10.42-13.75,26.5-21.63,44.12-21.63,12.77,0,25.71,4.18,36.43,11.78l23.73,22.71-88.92,89.01h0ZM413.52,542.13l90.02-89.87,88.52,87.65c-12.87,10.22-26.23,17.37-43.02,23.05-15.9,5.71-32.35,8.6-48.93,8.6-31.37,0-61.26-10.17-86.59-29.43h0Z"/>
  </g>
  <text class="cls-9" transform="translate(111.6 787.31)"><tspan class="cls-4" x="0" y="0">Find</tspan><tspan class="cls-5" x="228.81" y="0">M</tspan><tspan class="cls-3" x="330.92" y="0">y</tspan><tspan class="cls-1" x="396.44" y="0">R</tspan><tspan class="cls-4" x="466.31" y="0">oo</tspan><tspan class="cls-2" x="599.27" y="0">m</tspan><tspan class="cls-6" x="688.98" y="0">.</tspan><tspan class="cls-7" x="705.18" y="0">be</tspan></text>
</svg>