<?xml version="1.0" encoding="UTF-8"?>
<svg id="Calque_1" data-name="Calque 1" xmlns="http://www.w3.org/2000/svg" viewBox="0 0 1000 1000">
  <path d="M901.52,539.3c-.13-52.1-26.4-97.59-64.96-132.96-82.15-75.35-166.02-146.51-253.18-216.11-23.37-18.66-55.26-27.54-87.07-27.38h0c-31.82-.16-63.71,8.72-87.07,27.38-87.16,69.59-171.03,140.75-253.18,216.11-38.56,35.37-64.83,80.86-64.96,132.96l-.51,198.52c-.13,51.4,31.82,89.17,80.55,97.7,33.94,5.94,63.93-4.51,87.63-27.67l51.93-50.76c51.36,45.09,118.49,66.91,185.61,66.06h0c67.12.86,134.26-20.97,185.61-66.06l51.93,50.76c23.7,23.16,53.69,33.61,87.63,27.67,48.73-8.53,80.68-46.3,80.55-97.7l-.51-198.52ZM285.68,506.9c30.92-40.78,87.69-44.64,128.38-15.68l38.96,37.28-140.96,141.12c-51.32-38.32-65.42-111.22-26.38-162.72ZM496.3,761.49c-50.65.94-100.54-15.51-142.01-48.03l142.01-141.77h0s0,0,0,0l142.01,141.77c-41.47,32.52-91.36,48.97-142.01,48.03ZM680.55,669.62l-140.96-141.12,38.96-37.28c40.69-28.96,97.46-25.1,128.38,15.68,39.04,51.49,24.94,124.4-26.38,162.72ZM839.78,728.69c-1.59,7.57-4.27,19.36-6.68,24.99-5.7,13.33-19.49,21.54-33.9,19.98-9.72-1.05-19.14-5.48-26.62-12.78l-47.43-46.26c80.36-71.88,91.07-195.58,10.79-266.45-58.31-51.47-144.33-50.78-203.88-.68l-35.76,34.75h0s0,0,0,0h0s-35.76-34.75-35.76-34.75c-59.55-50.09-145.57-50.78-203.88.68-80.29,70.87-69.57,194.56,10.79,266.45l-47.43,46.26c-7.48,7.3-16.91,11.73-26.62,12.78-14.41,1.56-28.2-6.65-33.9-19.98-2.41-5.63-5.09-17.42-6.68-24.99-.93-4.42-1.38-8.92-1.35-13.43l1.15-175.54c10.61-40.22,27.23-71.35,57.32-98.27,78.34-70.1,157.32-137.37,239.95-202.46,13.68-10.77,30.12-15.72,46.4-15.46h0c16.28-.26,32.72,4.69,46.4,15.46,82.63,65.08,161.61,132.35,239.95,202.46,30.09,26.92,46.71,58.05,57.32,98.27l1.15,175.54c.03,4.52-.42,9.02-1.35,13.43Z"/>
</svg>